<?xml version="1.0" standalone="no"?>
<!DOCTYPE svg PUBLIC "-//W3C//DTD SVG 1.0//EN" "http://www.w3.org/TR/2001/REC-SVG-20010904/DTD/svg10.dtd">
<svg xmlns="http://www.w3.org/2000/svg" xmlns:xlink="http://www.w3.org/1999/xlink" id="body_1" width="6193" height="4647">

<g transform="matrix(2.0100617 0 0 2.0099483 0 0)">
	<g transform="matrix(1.7097671 0 0 1.7100592 0 0)">
		<g transform="matrix(56.333336 0 0 56.333336 224.99997 -0)">
            <path d="M22 6L22 18C 22 19.10457 21.10457 20 20 20L20 20L4 20C 2.8954306 20 2 19.10457 2 18L2 18L2 6C 2 4.8954306 2.8954306 4 4 4L4 4L20 4C 21.10457 4 22 4.8954306 22 6z" stroke="none" fill="#BAE6FD" fill-rule="nonzero" />
            <path d="M22 14.3713L22 18C 22 19.10457 21.10457 20 20 20L20 20L4.1407 20C 3.4336796 19.999973 2.7792087 19.62666 2.4192998 19.0181L2.4192998 19.0181L2.2775 18.778101L8.2969 14.003401C 8.706322 13.69743 9.273853 13.719058 9.6588 14.055301L9.6588 14.055301L11.5 15.76L17.302101 11.215401C 17.704294 10.90036 18.275707 10.923921 18.6506 11.271001L18.6506 11.271001L22 14.3713z" stroke="none" fill="#6EE7B7" fill-rule="nonzero" />
            <path d="M9 9C 9 9.808925 8.512715 10.538197 7.765367 10.847759C 7.0180182 11.157321 6.1577826 10.98621 5.5857863 10.414213C 5.0137906 9.842217 4.842679 8.981982 5.1522408 8.234633C 5.461803 7.4872847 6.1910753 7 7 7C 8.104569 7 9 7.8954306 9 9z" stroke="none" fill="#FCD34D" fill-rule="nonzero" />
            <path d="M20 3.5L4 3.5C 2.6198134 3.5012681 1.5012681 4.6198134 1.5 6L1.5 6L1.5 18C 1.5012681 19.380186 2.6198134 20.498732 4 20.5L4 20.5L20 20.5C 21.380186 20.498732 22.498732 19.380186 22.5 18L22.5 18L22.5 6C 22.498732 4.6198134 21.380186 3.5012681 20 3.5zM21.5 18C 21.499063 18.82804 20.82804 19.499063 20 19.5L20 19.5L4 19.5C 3.556811 19.49839 3.137312 19.29969 2.8553 18.9578L2.8553 18.9578L8.6074 14.3955C 8.819365 14.235287 9.114477 14.24504 9.3154 14.4189005L9.3154 14.4189005L11.16 16.127C 11.340571 16.293266 11.614955 16.304396 11.8084 16.153301L11.8084 16.153301L17.606201 11.612301C 17.818201 11.45538 18.110647 11.466345 18.3103 11.6387005L18.3103 11.6387005L21.5 14.59zM21.5 13.227L18.99 10.9053C 18.431572 10.394774 17.586502 10.360987 16.9891 10.8253L16.9891 10.8253L11.5271 15.1036L9.9941 13.6846C 9.432272 13.1734705 8.583438 13.142904 7.9862995 13.6123L7.9862995 13.6123L2.5 17.9638L2.5 6C 2.5009367 5.1719613 3.1719613 4.5009365 4 4.5L4 4.5L20 4.5C 20.82804 4.5009365 21.499063 5.1719613 21.5 6zM7 6.5C 5.9888444 6.5 5.077254 7.1091056 4.690301 8.043291C 4.3033485 8.977477 4.517238 10.052772 5.232233 10.767767C 5.947228 11.482761 7.0225224 11.696651 7.9567084 11.309699C 8.890894 10.922747 9.5 10.011156 9.5 9C 9.498732 7.619814 8.380186 6.5012684 7 6.5zM7 10.5C 6.3933067 10.5 5.846352 10.134537 5.6141806 9.574025C 5.3820095 9.013514 5.5103426 8.368337 5.9393396 7.9393396C 6.3683367 7.5103426 7.0135136 7.3820095 7.574025 7.6141806C 8.134537 7.846352 8.5 8.393307 8.5 9C 8.4990635 9.828038 7.8280387 10.499063 7 10.5z" stroke="none" fill="#0F172A" fill-rule="nonzero" />
		</g>
	</g>
</g>
</svg>