<!-- icon666.com - MILLIONS vector ICONS FREE --><svg width="100" height="100"
 xmlns="http://www.w3.org/2000/svg" viewBox="0 0 24 24"><path d="M22,6V18a2,2,0,0,1-2,2H4a2,2,0,0,1-2-2V6A2,2,0,0,1,4,4H20A2,2,0,0,1,22,6Z" fill="#bae6fd"/><path d="M22,14.3713V18a2,2,0,0,1-2,2H4.1407a2,2,0,0,1-1.7214-.9819l-.1418-.24,6.0194-4.7747a1.0839,1.0839,0,0,1,1.3619.0519L11.5,15.76l5.8021-4.5446a1.0405,1.0405,0,0,1,1.3485.0556Z" fill="#6ee7b7"/><path d="M9,9A2,2,0,1,1,7,7,2,2,0,0,1,9,9Z" fill="#fcd34d"/><path d="M20,3.5H4A2.5023,2.5023,0,0,0,1.5,6V18A2.5023,2.5023,0,0,0,4,20.5H20A2.5023,2.5023,0,0,0,22.5,18V6A2.5023,2.5023,0,0,0,20,3.5ZM21.5,18A1.5017,1.5017,0,0,1,20,19.5H4a1.4909,1.4909,0,0,1-1.1447-.5422l5.7521-4.5623a.5631.5631,0,0,1,.708.0234L11.16,16.127a.5015.5015,0,0,0,.6484.0263l5.7978-4.541a.564.564,0,0,1,.7041.0264L21.5,14.59Zm0-4.773-2.51-2.3217a1.553,1.553,0,0,0-2.0009-.08l-5.462,4.2783L9.9941,13.6846a1.5553,1.5553,0,0,0-2.0078-.0723L2.5,17.9638V6A1.5017,1.5017,0,0,1,4,4.5H20A1.5017,1.5017,0,0,1,21.5,6ZM7,6.5A2.5,2.5,0,1,0,9.5,9,2.5023,2.5023,0,0,0,7,6.5Zm0,4A1.5,1.5,0,1,1,8.5,9,1.5017,1.5017,0,0,1,7,10.5Z" fill="#0f172a"/></svg>